<svg xmlns="http://www.w3.org/2000/svg" width="94.617" height="141.756" viewBox="0 0 94.617 141.756">
  <g id="LOGO" transform="translate(-183.012 -197.638)">
    <g id="TEXTS" transform="translate(183.012 300.851)">
      <g id="FR" transform="translate(0 29.078)">
        <g id="Group_4" data-name="Group 4">
          <path id="Path_3" data-name="Path 3" d="M419.883,324.231a3.015,3.015,0,0,1,1.44-.259L423.8,330.8l2.573-6.829a2.413,2.413,0,0,1,1.327.243l-3.269,8.253a4.781,4.781,0,0,1-1.359,0Z" transform="translate(-419.883 -323.148)" fill="#0056a3"/>
          <path id="Path_4" data-name="Path 4" d="M441.643,324.467a3.061,3.061,0,0,1,1.489-.437l-.016,8.414a2.451,2.451,0,0,1-1.246.081S441.853,327.525,441.643,324.467Z" transform="translate(-432.84 -323.191)" fill="#0056a3"/>
          <path id="Path_5" data-name="Path 5" d="M450.043,324.467a3.048,3.048,0,0,1,1.473-.437v7.249h3.867a1.845,1.845,0,0,1,0,1.181H450.27S450.253,327.525,450.043,324.467Z" transform="translate(-437.842 -323.191)" fill="#0056a3"/>
          <path id="Path_6" data-name="Path 6" d="M466.082,324.467a3.05,3.05,0,0,1,1.473-.437v7.249h3.867a1.842,1.842,0,0,1,0,1.181h-5.113S466.292,327.525,466.082,324.467Z" transform="translate(-447.392 -323.191)" fill="#0056a3"/>
          <path id="Path_7" data-name="Path 7" d="M482.2,324.514a4.469,4.469,0,0,1,2.136-.324h3.576a1.96,1.96,0,0,1,0,1.181h-4.256l-.016,2.411h3.786a1.959,1.959,0,0,1,0,1.181h-3.786v2.411H487.9a1.74,1.74,0,0,1,0,1.181h-5.5S482.379,327.572,482.2,324.514Z" transform="translate(-456.991 -323.286)" fill="#0056a3"/>
          <path id="Path_8" data-name="Path 8" d="M513.664,332.484s-.016-5.049-.195-8.107a4.562,4.562,0,0,1,2.136-.307h.987c2.994,0,4.223,1.861,4.223,4.256,0,2.411-1.278,4.159-4.174,4.159Zm1.246-1.181h1.732a4.541,4.541,0,0,0,1.909-.324,3.887,3.887,0,0,0,.841-2.654c0-1.667-.809-3.075-2.816-3.075h-1.65Z" transform="translate(-475.609 -323.214)" fill="#0056a3"/>
          <path id="Path_9" data-name="Path 9" d="M536.122,325.367a1.4,1.4,0,0,1-.858,0l1.375-3.236a1.766,1.766,0,0,1,1.537,0Z" transform="translate(-488.587 -321.955)" fill="#0056a3"/>
          <path id="Path_10" data-name="Path 10" d="M540.539,332.22l3.5-8.3a4.778,4.778,0,0,1,1.359,0l3.414,8.269a3.051,3.051,0,0,1-1.44.259l-.874-2.217h-3.722l-.89,2.217A2.624,2.624,0,0,1,540.539,332.22Zm2.719-3.188h2.767l-1.359-3.5Z" transform="translate(-491.728 -323.095)" fill="#0056a3"/>
          <path id="Path_11" data-name="Path 11" d="M561.818,328.207c0-2.395,1.311-4.337,4.272-4.337a5.982,5.982,0,0,1,2.977.744,2.782,2.782,0,0,1-.534,1.214,5.539,5.539,0,0,0-2.653-.744,3.77,3.77,0,0,0-1.748.34,4.14,4.14,0,0,0-.873,2.783c0,1.683.857,3.139,2.848,3.139a4.542,4.542,0,0,0,1.958-.453v-2.12h-2.153a2.919,2.919,0,0,1,0-1.181h3.382v4.094a6.134,6.134,0,0,1-3.187.874C563.1,332.56,561.818,330.618,561.818,328.207Z" transform="translate(-504.399 -323.095)" fill="#0056a3"/>
          <path id="Path_12" data-name="Path 12" d="M583.058,332.22l3.5-8.3a4.778,4.778,0,0,1,1.359,0l3.414,8.269a3.052,3.052,0,0,1-1.44.259l-.874-2.217h-3.722l-.89,2.217A2.624,2.624,0,0,1,583.058,332.22Zm2.719-3.188h2.767l-1.359-3.5Z" transform="translate(-517.047 -323.095)" fill="#0056a3"/>
          <path id="Path_13" data-name="Path 13" d="M606.452,332.484s-.016-5.049-.195-8.107a4.562,4.562,0,0,1,2.136-.307h.987c2.994,0,4.223,1.861,4.223,4.256,0,2.411-1.278,4.159-4.174,4.159ZM607.7,331.3h1.731a4.54,4.54,0,0,0,1.909-.324,3.887,3.887,0,0,0,.841-2.654c0-1.667-.809-3.075-2.816-3.075h-1.65Z" transform="translate(-530.861 -323.214)" fill="#0056a3"/>
          <path id="Path_14" data-name="Path 14" d="M628.138,324.467a3.061,3.061,0,0,1,1.489-.437l-.016,8.414a2.452,2.452,0,0,1-1.246.081S628.348,327.525,628.138,324.467Z" transform="translate(-543.89 -323.191)" fill="#0056a3"/>
          <path id="Path_15" data-name="Path 15" d="M639.222,328.958h-1.149v3.479a2.713,2.713,0,0,1-1.262.081s-.016-5.211-.194-8.172a9.006,9.006,0,0,1,2.751-.356c2.282,0,3.317.841,3.317,2.46a2.242,2.242,0,0,1-2.087,2.411l2.735,3.528a3.58,3.58,0,0,1-1.618.129Zm-1.149-1.117h1.359a3.5,3.5,0,0,0,1.375-.146,1.534,1.534,0,0,0,.469-1.2c0-1.052-.76-1.327-1.909-1.327a12.792,12.792,0,0,0-1.295.081Z" transform="translate(-548.939 -323.167)" fill="#0056a3"/>
        </g>
      </g>
      <g id="AR" transform="translate(0.14 10.769)">
        <g id="Group_6" data-name="Group 6">
          <g id="Group_5" data-name="Group 5">
            <path id="Path_16" data-name="Path 16" d="M461.649,310.149a6.693,6.693,0,0,0-1.124,1.091l1.124,1.107,1.107-1.041S462.161,310.645,461.649,310.149Z" transform="translate(-444.224 -296.615)" fill="#0056a3"/>
            <path id="Path_17" data-name="Path 17" d="M440.943,295.84a8.848,8.848,0,0,0-.38-2.5,2.294,2.294,0,0,0-1.4.612,6.476,6.476,0,0,1,.529,2.611,7.357,7.357,0,0,1-.066.892H426.13a2.82,2.82,0,0,1-1.206-.3v-.116a9.92,9.92,0,0,0-.958-3.768,2.5,2.5,0,0,0-1.322.777,9.315,9.315,0,0,1,1.388,3.553,7.546,7.546,0,0,1-3.8,3.7,1.9,1.9,0,0,0,1.223.992,7.341,7.341,0,0,0,3.338-4.2,1.713,1.713,0,0,0,1.327.561h14.346A9.308,9.308,0,0,0,440.943,295.84Z" transform="translate(-420.23 -286.57)" fill="#0056a3"/>
            <path id="Path_18" data-name="Path 18" d="M466.244,311.24l1.14,1.107,1.091-1.041s-.595-.661-1.091-1.157A6.423,6.423,0,0,0,466.244,311.24Z" transform="translate(-447.629 -296.615)" fill="#0056a3"/>
            <path id="Path_19" data-name="Path 19" d="M477.328,291.239a6.051,6.051,0,0,1,1.454,3.95,4.488,4.488,0,0,1-.033.5,14.8,14.8,0,0,1-3.966-.413,3.1,3.1,0,0,0,0,1.4,22.91,22.91,0,0,0,4,.215h.909a7.878,7.878,0,0,0,.265-1.851,8.18,8.18,0,0,0-1.422-4.742A1.862,1.862,0,0,0,477.328,291.239Z" transform="translate(-452.666 -284.794)" fill="#0056a3"/>
            <path id="Path_20" data-name="Path 20" d="M499.848,285.23a2.656,2.656,0,0,0-1.041.132,28.6,28.6,0,0,1,4.957-4.313,1.771,1.771,0,0,0-1.388-.76,25.693,25.693,0,0,0-4.908,5.189,2.391,2.391,0,0,0,.612,1.107,5.607,5.607,0,0,1,1.057-.1c2.082,0,4.1.843,4.1,3.239h-8.892v-8.577a2.46,2.46,0,0,0-1.471.446c.1,1.686.4,9.336.4,9.336h10.908a7.646,7.646,0,0,0,.215-1.6A4.268,4.268,0,0,0,499.848,285.23Z" transform="translate(-463.486 -278.835)" fill="#0056a3"/>
            <path id="Path_21" data-name="Path 21" d="M526.078,278.05a1,1,0,0,1,.909-.562,1.7,1.7,0,0,1,.678.182,2.267,2.267,0,0,0,.2-.628,1.684,1.684,0,0,0-1.008-.347,1.291,1.291,0,0,0-1.305,1.322,1.272,1.272,0,0,0,.545.975,6.118,6.118,0,0,0-.826.3.882.882,0,0,0,.231.595,7.791,7.791,0,0,1,2.38-.331,2.8,2.8,0,0,0,.132-.942,2.8,2.8,0,0,1-.76.083A1.383,1.383,0,0,1,526.078,278.05Z" transform="translate(-482.776 -276.695)" fill="#0056a3"/>
            <path id="Path_22" data-name="Path 22" d="M527.462,294h.3a2.218,2.218,0,0,0,.776-.3v-8.262a2.427,2.427,0,0,0-1.471.446C527.165,287.634,527.462,294,527.462,294Z" transform="translate(-483.846 -281.9)" fill="#0056a3"/>
            <path id="Path_23" data-name="Path 23" d="M553.931,283.284s-.595-.661-1.107-1.157a6.7,6.7,0,0,0-1.124,1.091l1.124,1.107Z" transform="translate(-498.515 -279.93)" fill="#0056a3"/>
            <path id="Path_24" data-name="Path 24" d="M559.65,283.284s-.595-.661-1.091-1.157a6.423,6.423,0,0,0-1.14,1.091l1.14,1.107Z" transform="translate(-501.92 -279.93)" fill="#0056a3"/>
            <path id="Path_25" data-name="Path 25" d="M570.661,288.945s-.6-.661-1.091-1.14a6.259,6.259,0,0,0-1.123,1.074l1.123,1.09Z" transform="translate(-508.486 -283.311)" fill="#0056a3"/>
            <path id="Path_26" data-name="Path 26" d="M573.623,296.647a9.307,9.307,0,0,0,.479-2.826,8.866,8.866,0,0,0-.38-2.5,2.294,2.294,0,0,0-1.4.612,6.476,6.476,0,0,1,.529,2.611,7.268,7.268,0,0,1-.066.892H560.111a4.369,4.369,0,0,1-1.719-.281,15.33,15.33,0,0,0,.744-2.4,1.936,1.936,0,0,0-1.471-.281,8.684,8.684,0,0,1-.612,2.958h-2.528v-5.552a2.875,2.875,0,0,0-1.454.512c0,.182.017.413.033.644-1.586.512-3.569,1.851-3.569,3.421,0,1.272,1.372,2.181,3.14,2.181a5.908,5.908,0,0,0,.81-.925,3.537,3.537,0,0,0,.71.925h3.354a7.21,7.21,0,0,0,.512-.793,2.431,2.431,0,0,0,2.049.793h13.513Zm-20.816-1.206a2.387,2.387,0,0,1-2.2-1.206,4.37,4.37,0,0,1,2.562-2.049l.2,3.206A2.955,2.955,0,0,1,552.807,295.441Z" transform="translate(-497.225 -284.551)" fill="#0056a3"/>
            <path id="Path_27" data-name="Path 27" d="M600.479,310.149a6.68,6.68,0,0,0-1.123,1.091l1.123,1.107,1.107-1.041S600.992,310.645,600.479,310.149Z" transform="translate(-526.892 -296.615)" fill="#0056a3"/>
            <path id="Path_28" data-name="Path 28" d="M605.074,311.24l1.14,1.107,1.091-1.041s-.6-.661-1.091-1.157A6.432,6.432,0,0,0,605.074,311.24Z" transform="translate(-530.297 -296.615)" fill="#0056a3"/>
          </g>
          <path id="Path_29" data-name="Path 29" d="M625.742,291.144a3.261,3.261,0,0,0-.859.926c-.215,2.314-.578,3.537-2.232,3.537h-3.477a19.3,19.3,0,0,1-.893-5.438,3.152,3.152,0,0,0-1.471.413,24.043,24.043,0,0,0,1.058,4.728,6.939,6.939,0,0,1-2.017.3,7.2,7.2,0,0,1-2.232-.347,3.356,3.356,0,0,0,0,1.405,11.764,11.764,0,0,0,1.884.148,7.387,7.387,0,0,0,3.025-.529,2.9,2.9,0,0,0,.562.529H622.7l.007,0a2.6,2.6,0,0,0,2.112-1.006,2.783,2.783,0,0,0,.017.38,8.621,8.621,0,0,0,3.57.777,3.925,3.925,0,0,0,1.042-1.157,4.441,4.441,0,0,0,.149-1.091A3.6,3.6,0,0,0,625.742,291.144Zm2.629,4.612a8.47,8.47,0,0,1-3.075-.711,8.056,8.056,0,0,0,.612-2.579,2.708,2.708,0,0,1,2.612,2.43A2.75,2.75,0,0,1,628.371,295.756Z" transform="translate(-535.341 -284.718)" fill="#0056a3"/>
        </g>
        <g id="Group_8" data-name="Group 8" transform="translate(33.891 1.034)">
          <g id="Group_7" data-name="Group 7">
            <path id="Path_30" data-name="Path 30" d="M504.7,284.385a5.69,5.69,0,0,1-.008-1.333c.606-.023,1.363,0,1.363,0l-.012,1.293Z" transform="translate(-504.391 -281.508)" fill="#0056a3"/>
            <path id="Path_31" data-name="Path 31" d="M504.036,280.422a5.213,5.213,0,0,1,0-1.163c.527-.021,1.184,0,1.184,0l-.016,1.114Z" transform="translate(-504.005 -279.25)" fill="#0056a3"/>
            <path id="Path_32" data-name="Path 32" d="M508.067,280.865a5.469,5.469,0,0,1,0-1.343c.6-.013,1.353.011,1.353.011l0,1.283Z" transform="translate(-506.4 -279.41)" fill="#0056a3"/>
          </g>
        </g>
      </g>
      <g id="AMZ" transform="translate(0.14 0)">
        <path id="Path_33" data-name="Path 33" d="M426.015,257.57a1.717,1.717,0,0,1,0,1.179h-3.537c-1.36,0-1.873-.042-2.247-.319.61-.943,1.637-2.441,2.539-3.8-.93-1.373-1.928-2.761-2.539-3.718a3.482,3.482,0,0,1,2.247-.527h3.537a1.677,1.677,0,0,1,0,1.165h-3.857c.541.8,1.027,1.568,1.609,2.428a.984.984,0,0,1,0,1.249c-.583.916-1.027,1.553-1.554,2.344Z" transform="translate(-420.23 -250.259)" fill="#0056a3"/>
        <path id="Path_34" data-name="Path 34" d="M440.815,250.453v3.5c1.026-.042,2.3-.1,3.315-.166-.042-.9-.069-1.818-.125-2.8a2,2,0,0,1,1.318-.527c.028,1.193.028,2.178.014,4.508a3.291,3.291,0,0,1-1.055.111h-1.248c-.014,1.207-.014,2.4-.014,3.579a2.351,2.351,0,0,1-1.1.125c0-.68-.014-2.039-.07-3.7h-2.247c-.055-2-.1-3.024-.153-4.092A2.154,2.154,0,0,1,440.815,250.453Z" transform="translate(-431.678 -250.3)" fill="#0056a3"/>
        <path id="Path_35" data-name="Path 35" d="M459.367,254.362c0-2.344,1.262-4.286,4.134-4.286,2.954,0,4.175,1.942,4.175,4.286,0,2.4-1.29,4.314-4.134,4.314C460.574,258.677,459.367,256.762,459.367,254.362Zm6.118,2.858a4.6,4.6,0,0,0,.86-2.858c0-1.692-.874-3.107-2.844-3.107a4.729,4.729,0,0,0-1.956.291,4.436,4.436,0,0,0-.846,2.816c0,1.721.832,3.163,2.844,3.163A5.43,5.43,0,0,0,465.485,257.22Z" transform="translate(-443.534 -250.076)" fill="#0056a3"/>
        <path id="Path_36" data-name="Path 36" d="M486.445,251.048a3.482,3.482,0,0,1,2.247-.527h3.537a1.564,1.564,0,0,1,0,1.124h-4.439v6.1h4.439a1.493,1.493,0,0,1,0,1.1h-5.577C486.653,257.665,486.625,254.433,486.445,251.048Z" transform="translate(-459.658 -250.341)" fill="#0056a3"/>
        <path id="Path_37" data-name="Path 37" d="M518.917,251.014a2.2,2.2,0,0,1,1.387-.527q-.021,4.016,0,8.2a2.658,2.658,0,0,1-1.166.125C519.139,257.631,519.083,254.4,518.917,251.014Z" transform="translate(-478.994 -250.321)" fill="#0056a3"/>
        <g id="Group_9" data-name="Group 9" transform="translate(47.491 0.234)">
          <path id="Path_38" data-name="Path 38" d="M537.623,252.612a1.905,1.905,0,1,1,3.809,0,1.784,1.784,0,0,1-1.891,1.958A1.759,1.759,0,0,1,537.623,252.612Zm0,4.386a1.9,1.9,0,1,1,3.809,0,1.788,1.788,0,0,1-1.891,1.972A1.763,1.763,0,0,1,537.623,257Zm2.575-3.42a1.663,1.663,0,0,0,.269-.979.92.92,0,0,0-.966-1.019,1.817,1.817,0,0,0-.657.08,1.51,1.51,0,0,0-.255.939.919.919,0,0,0,.952,1.046A2.061,2.061,0,0,0,540.2,253.578Zm0,4.4a1.663,1.663,0,0,0,.269-.979.92.92,0,0,0-.966-1.019,1.773,1.773,0,0,0-.657.081,1.507,1.507,0,0,0-.255.939c0,.563.255,1.046.952,1.046A2.019,2.019,0,0,0,540.2,257.977Z" transform="translate(-537.623 -250.654)" fill="#0056a3"/>
        </g>
        <path id="Path_39" data-name="Path 39" d="M560.614,258.54a2.088,2.088,0,0,1-1.345.236l-1.651-2.719c-.874,1.443-1.609,2.65-1.651,2.719a2.123,2.123,0,0,1-1.346-.236c.721-1.123,1.526-2.33,2.331-3.565l-2.441-4a3.509,3.509,0,0,1,2.247-.527h3.537a1.917,1.917,0,0,1,0,1.248c-.416.666-1.221,1.956-2.011,3.274C559.088,256.2,559.892,257.417,560.614,258.54Zm-3-4.592c.5-.763.985-1.512,1.443-2.247h-2.885C556.632,252.436,557.132,253.186,557.617,253.949Z" transform="translate(-500.188 -250.3)" fill="#0056a3"/>
        <path id="Path_40" data-name="Path 40" d="M574.284,261.282a2.436,2.436,0,1,1,2.455,2.525A2.264,2.264,0,0,1,574.284,261.282Zm3.329,1.318a2.189,2.189,0,0,0,.388-1.318,1.249,1.249,0,0,0-1.3-1.4,1.03,1.03,0,0,0-1.262,1.4c0,.79.36,1.456,1.3,1.456A2.419,2.419,0,0,0,577.613,262.6Z" transform="translate(-511.963 -255.262)" fill="#0056a3"/>
        <path id="Path_41" data-name="Path 41" d="M597.8,258.509a2.294,2.294,0,0,1-1.443.25L594.025,252l-2.331,6.756a2.436,2.436,0,0,1-1.443-.25l3.094-8.046a3.743,3.743,0,0,1,1.359,0Z" transform="translate(-521.471 -250.27)" fill="#0056a3"/>
        <path id="Path_42" data-name="Path 42" d="M619.617,257.57a1.716,1.716,0,0,1,0,1.179h-3.537c-1.359,0-1.873-.042-2.247-.319.61-.943,1.637-2.441,2.539-3.8-.929-1.373-1.928-2.761-2.539-3.718a3.482,3.482,0,0,1,2.247-.527h3.537a1.676,1.676,0,0,1,0,1.165H615.76c.541.8,1.027,1.568,1.609,2.428a.983.983,0,0,1,0,1.249c-.583.916-1.026,1.553-1.553,2.344Z" transform="translate(-535.512 -250.259)" fill="#0056a3"/>
        <path id="Path_43" data-name="Path 43" d="M633.229,254.362c0-2.344,1.263-4.286,4.134-4.286,2.955,0,4.176,1.942,4.176,4.286,0,2.4-1.291,4.314-4.134,4.314C634.436,258.677,633.229,256.762,633.229,254.362Zm6.118,2.858a4.6,4.6,0,0,0,.86-2.858c0-1.692-.874-3.107-2.844-3.107a4.73,4.73,0,0,0-1.956.291,4.436,4.436,0,0,0-.846,2.816c0,1.721.833,3.163,2.844,3.163A5.429,5.429,0,0,0,639.347,257.22Z" transform="translate(-547.062 -250.076)" fill="#0056a3"/>
      </g>
    </g>
    <g id="ICON" transform="translate(188.12 197.638)">
      <g id="Group_14" data-name="Group 14">
        <g id="Group_13" data-name="Group 13">
          <g id="Group_10" data-name="Group 10" transform="translate(47.937 4.01)">
            <path id="Path_44" data-name="Path 44" d="M317.191,217.892a7.06,7.06,0,0,1,1.445,13.971l.791,1.369a8.576,8.576,0,1,0-8.291-14.353l.791,1.37A7.042,7.042,0,0,1,317.191,217.892Z" transform="translate(-309.307 -212.805)" fill="#0056a3"/>
            <path id="Path_45" data-name="Path 45" d="M314.5,209.7a10,10,0,0,1,2.969,19.548l1.1,1.9a12.147,12.147,0,1,0-11.949-20.687l1.1,1.9A9.962,9.962,0,0,1,314.5,209.7Z" transform="translate(-306.616 -207.551)" fill="#0056a3"/>
            <path id="Path_46" data-name="Path 46" d="M324.928,230.736a4.646,4.646,0,0,0-8.6-2.438l4.09,7.08A4.645,4.645,0,0,0,324.928,230.736Z" transform="translate(-312.398 -218.59)" fill="#0056a3"/>
          </g>
          <g id="Group_12" data-name="Group 12">
            <g id="Group_11" data-name="Group 11">
              <path id="Path_47" data-name="Path 47" d="M286.446,197.638l-4.043,7,4.057,7.026,4.05-7.015Z" transform="translate(-244.261 -197.638)" fill="#0056a3"/>
              <path id="Path_48" data-name="Path 48" d="M274.416,218.424l-4.063,7.037,4.063,7.028,4.053-7.033Z" transform="translate(-237.087 -210.015)" fill="#0056a3"/>
              <path id="Path_49" data-name="Path 49" d="M262.474,239.323l-4.063,7.037,4.063,7.029,4.053-7.033Z" transform="translate(-229.975 -222.46)" fill="#0056a3"/>
              <path id="Path_50" data-name="Path 50" d="M260.083,249.365l-4.058-7.041,13.8-23.895,4.064,7.026-9.739,16.885,13.8,23.9-17.859-.011-13.8-23.9,4.029-7.07,13.771,23.9,1.73.1Z" transform="translate(-222.759 -210.018)" fill="#0056a3"/>
              <path id="Path_51" data-name="Path 51" d="M334.9,295.55l-28.451-49.194,4.06-7.033,32.469,56.227Z" transform="translate(-258.583 -222.46)" fill="#0056a3"/>
              <path id="Path_52" data-name="Path 52" d="M285.468,260.158l22.645,39.349H272.564l3.948-7.026,19.482.044-14.584-25.353Z" transform="translate(-238.403 -234.866)" fill="#0056a3"/>
              <path id="Path_53" data-name="Path 53" d="M248.312,347.077h8.13l4.032-7.02h-8.109Z" transform="translate(-223.962 -282.443)" fill="#0056a3"/>
              <path id="Path_54" data-name="Path 54" d="M224.17,347.039h8.13l4.047-7.046h-8.109Z" transform="translate(-209.586 -282.404)" fill="#0056a3"/>
              <path id="Path_55" data-name="Path 55" d="M210.84,280.976l12.983,22.378-17.867.084-9.721,16.9H188.12l13.794-23.9,9.739.005L206.782,288Z" transform="translate(-188.12 -247.262)" fill="#0056a3"/>
            </g>
          </g>
        </g>
        <path id="Path_56" data-name="Path 56" d="M279.064,362.879l-9.371,3.313-9.371-3.313-9.371,3.313-9.4-3.313-9.4,3.313-9.371-3.313v4.6l9.371,3.313,9.4-3.247,9.4,3.247,9.371-3.313,9.371,3.313,9.371-3.313Z" transform="translate(-208.757 -296.032)" fill="#0056a3"/>
        <path id="Path_57" data-name="Path 57" d="M274.642,381.4l-9.371-3.313L255.9,381.4l-9.371-3.313-9.371,3.313-9.4-3.313-9.4,3.313-9.371-3.313-9.371,3.313V386l9.371-3.313L218.354,386l9.4-3.247,9.4,3.247,9.371-3.313L255.9,386l9.371-3.313L274.642,386Z" transform="translate(-194.963 -305.087)" fill="#0056a3"/>
      </g>
    </g>
  </g>
</svg>
