<?xml version="1.0" encoding="iso-8859-1"?>
<!-- Generator: Adobe Illustrator 19.0.0, SVG Export Plug-In . SVG Version: 6.00 Build 0)  -->
<svg version="1.1"  fill="blue" id="Layer_1" xmlns="http://www.w3.org/2000/svg" xmlns:xlink="http://www.w3.org/1999/xlink" x="0px" y="0px"
	 viewBox="0 0 512.002 512.002" style="enable-background:new 0 0 512.002 512.002;" xml:space="preserve">
<g>
	<g>
		<g>
			<path d="M426.668,341.334c-18.825,0-34.133,15.309-34.133,34.133s15.309,34.133,34.133,34.133s34.133-15.309,34.133-34.133
				S445.493,341.334,426.668,341.334z"/>
			<path d="M221.868,315.734c-23.526,0-42.667,19.14-42.667,42.667c0,23.526,19.14,42.667,42.667,42.667
				c23.526,0,42.667-19.14,42.667-42.667C264.535,334.874,245.395,315.734,221.868,315.734z M221.868,384.001
				c-14.114,0-25.6-11.486-25.6-25.6s11.486-25.6,25.6-25.6s25.6,11.486,25.6,25.6S235.982,384.001,221.868,384.001z"/>
			<polygon points="178.067,196.267 221.869,196.267 221.869,153.601 171.975,153.601 			"/>
			<path d="M510.406,251.043l-42.667-59.733c-1.596-2.244-4.181-3.575-6.938-3.575H336.104l14.225-42.667h95.07l26.854,23.484
				c3.371,2.97,8.482,2.807,11.648-0.384l25.6-25.6c1.715-1.715,2.628-4.079,2.483-6.502c-0.137-2.424-1.289-4.676-3.183-6.195
				l-42.667-34.133c-1.519-1.212-3.388-1.869-5.333-1.869H324.268c-3.354,0-6.383,1.954-7.765,5.001l-40.397,88.866h-3.038v-74.786
				l16.171-32.333c1.323-2.645,1.178-5.786-0.375-8.303c-1.562-2.509-4.301-4.045-7.262-4.045h-204.8
				c-3.627,0-6.852,2.287-8.047,5.709c-1.203,3.422-0.111,7.228,2.714,9.489l40.124,32.094l16.316,97.954l-6.656,53.257
				l-27.383,17.724v-6.409c0-3.234-1.826-6.187-4.719-7.629L55.016,253.39c-2.398-1.203-5.231-1.203-7.629,0l-34.133,17.067
				c-2.893,1.442-4.719,4.395-4.719,7.629v42.667c0,2.995,1.57,5.769,4.122,7.313l7.185,4.326l-15.94,10.317
				c-3.174,2.048-4.625,5.948-3.55,9.574c1.067,3.627,4.403,6.118,8.183,6.118h110.933h17.067v11.819
				c0,4.71,3.814,8.533,8.533,8.533h0.085c1.809,6.869,4.506,13.397,8.073,19.516l-0.051,0.051c-3.328,3.328-3.328,8.73,0,12.066
				l16.708,16.708c3.337,3.328,8.738,3.328,12.066,0l0.051-0.051c6.127,3.567,12.655,6.272,19.516,8.073v0.085
				c0,4.71,3.814,8.533,8.533,8.533h23.637c4.71,0,8.533-3.823,8.533-8.533v-0.085c6.861-1.801,13.389-4.506,19.516-8.073
				l0.051,0.051c3.328,3.328,8.73,3.328,12.066,0l16.708-16.708c3.328-3.337,3.328-8.738,0-12.066l-0.051-0.051
				c3.567-6.118,6.263-12.646,8.073-19.516h0.085c4.719,0,8.533-3.823,8.533-8.533v-11.819h53.444
				c-1.417,5.47-2.244,11.162-2.244,17.067c0,37.641,30.626,68.267,68.267,68.267c37.641,0,68.267-30.626,68.267-68.267
				c0-5.905-0.828-11.597-2.244-17.067h10.778c4.719,0,8.533-3.823,8.533-8.533v-93.867
				C512.002,254.226,511.447,252.485,510.406,251.043z M111.933,341.334H37.429l3.14-2.039h0.009l12.902-8.346l65.007-42.061
				L111.933,341.334z M329.764,110.934h128.043l32.888,26.308l-13.218,13.21l-23.253-20.335c-1.545-1.365-3.55-2.116-5.615-2.116
				H344.176c-3.678,0-6.929,2.347-8.09,5.837l-17.971,53.897h-23.262L329.764,110.934z M290.135,221.867
				c4.719,0,8.533,3.823,8.533,8.533c0,4.71-3.814,8.533-8.533,8.533h-42.667c-4.719,0-8.533-3.823-8.533-8.533
				c0-4.71,3.814-8.533,8.533-8.533H290.135z M230.402,213.334h-59.733c-4.25,0-7.851-3.123-8.448-7.322l-8.533-59.733
				c-0.35-2.458,0.384-4.932,1.997-6.801c1.63-1.869,3.977-2.944,6.451-2.944h68.267c4.719,0,8.533,3.823,8.533,8.533v59.733
				C238.935,209.511,235.121,213.334,230.402,213.334z M122.463,102.401L101.13,85.334h166.665l-8.533,17.067H122.463z
				 M290.135,361.831c-3.465,0.64-6.238,3.388-6.852,6.963c-1.57,9.361-5.146,18.005-10.624,25.694
				c-2.108,2.953-2.082,6.852-0.102,9.762l-4.838,4.847c-2.91-1.988-6.81-2.005-9.762,0.094
				c-7.697,5.478-16.341,9.054-25.685,10.624c-3.584,0.606-6.332,3.388-6.98,6.852h-6.844c-0.649-3.465-3.396-6.246-6.98-6.852
				c-9.344-1.57-17.988-5.146-25.685-10.624c-2.944-2.099-6.844-2.091-9.762-0.094l-4.838-4.847c1.98-2.91,2.005-6.81-0.102-9.762
				c-5.478-7.689-9.054-16.333-10.624-25.694c-0.614-3.576-3.388-6.323-6.852-6.963v-6.861c0.282-0.051,0.521-0.196,0.794-0.273
				c0.367-0.111,0.717-0.222,1.058-0.375c0.529-0.23,1.007-0.529,1.476-0.862c0.282-0.205,0.572-0.384,0.836-0.623
				c0.461-0.418,0.836-0.913,1.195-1.434c0.171-0.239,0.375-0.452,0.529-0.717c0.452-0.819,0.794-1.715,0.964-2.679
				c1.57-9.361,5.146-18.005,10.624-25.694c2.108-2.953,2.082-6.852,0.102-9.762l4.838-4.847c2.918,1.997,6.818,2.014,9.762-0.094
				c7.697-5.478,16.341-9.054,25.685-10.624c3.584-0.606,6.332-3.388,6.98-6.852h6.844c0.648,3.465,3.396,6.246,6.98,6.852
				c9.344,1.57,17.988,5.146,25.685,10.624c2.944,2.099,6.844,2.082,9.762,0.094l4.838,4.847c-1.98,2.91-2.005,6.81,0.102,9.762
				c5.478,7.688,9.054,16.333,10.624,25.694c0.171,0.964,0.512,1.86,0.964,2.679c0.154,0.265,0.358,0.478,0.529,0.717
				c0.358,0.521,0.734,1.016,1.195,1.434c0.265,0.239,0.555,0.418,0.836,0.623c0.469,0.333,0.947,0.631,1.476,0.862
				c0.341,0.154,0.691,0.265,1.058,0.375c0.273,0.077,0.512,0.222,0.794,0.273V361.831z M281.602,273.067
				c-4.719,0-8.533-3.823-8.533-8.533s3.814-8.533,8.533-8.533h25.6c4.719,0,8.533,3.823,8.533,8.533s-3.814,8.533-8.533,8.533
				H281.602z M332.802,298.667h-25.6c-4.719,0-8.533-3.823-8.533-8.533c0-4.71,3.814-8.533,8.533-8.533h25.6
				c4.719,0,8.533,3.823,8.533,8.533C341.335,294.845,337.521,298.667,332.802,298.667z M426.668,426.667
				c-28.237,0-51.2-22.963-51.2-51.2c0-7.885,1.843-15.326,5.035-21.999c2.108-4.42,4.813-8.448,7.996-12.006c0,0,0,0,0-0.009
				c7.825-8.747,18.517-14.618,30.165-16.495c0.452-0.068,0.896-0.145,1.34-0.205c2.202-0.299,4.42-0.486,6.665-0.486
				s4.463,0.188,6.665,0.486c0.444,0.06,0.887,0.137,1.34,0.205c11.648,1.877,22.34,7.748,30.165,16.495v0.009
				c3.183,3.558,5.888,7.586,7.996,12.006c3.191,6.673,5.035,14.114,5.035,21.999C477.868,403.704,454.905,426.667,426.668,426.667z
				"/>
		</g>
	</g>
</g>
<g>
</g>
<g>
</g>
<g>
</g>
<g>
</g>
<g>
</g>
<g>
</g>
<g>
</g>
<g>
</g>
<g>
</g>
<g>
</g>
<g>
</g>
<g>
</g>
<g>
</g>
<g>
</g>
<g>
</g>
</svg>
